<?xml version="1.0" standalone="no"?><svg xmlns="http://www.w3.org/2000/svg" viewBox="0 0 1440 320"><path fill="white" fill-opacity="1" d="M0,256L40,224C80,192,160,128,240,117.3C320,107,400,149,480,186.7C560,224,640,256,720,277.3C800,299,880,309,960,288C1040,267,1120,213,1200,181.3C1280,149,1360,139,1400,133.3L1440,128L1440,320L1400,320C1360,320,1280,320,1200,320C1120,320,1040,320,960,320C880,320,800,320,720,320C640,320,560,320,480,320C400,320,320,320,240,320C160,320,80,320,40,320L0,320Z"></path></svg>